<svg xmlns="http://www.w3.org/2000/svg" width="494" height="427" viewBox="0 0 494 427" fill="none"><g clip-path="url(#clip0_560_602)"><path d="M280.222 178.729L280.384 179.768C278.804 181.793 267.28 191.144 264.923 193.138C257.232 199.708 249.504 206.194 241.744 212.598C238.49 215.272 232.724 220.237 229.433 222.125C224.233 218.157 187.635 189.929 186.617 187.155L187.78 186.738C198.003 189.104 211.449 190.588 222.011 192.2C225.782 192.696 228.087 192.979 231.869 192.424C232.797 191.889 243.607 189.001 245.553 188.456L280.222 178.729Z" fill="white"></path><path d="M289.852 176.624C296.676 183.763 308.484 192.475 316.278 198.969L368.161 242.398C379.516 251.808 391.213 260.513 401.968 271.251L367.94 270.733L367.347 257.971C363.789 256.987 348.477 242.516 343.946 238.689C332.419 228.98 320.829 219.413 309.184 209.986C303.791 205.622 295.427 198.521 289.948 194.929C288.679 194.194 288.199 193.976 286.723 195.035C281.526 198.768 276.423 203.741 271.368 207.916L272.523 209.743V209.744L271.368 207.916L240.26 233.342C245 240.066 247.985 240.867 253.498 245.632C263.732 254.479 273.307 261.165 283.213 271.213L255.31 270.899L254.934 263.177C252.625 261.817 250.272 260.006 248.088 258.253C225.971 240.494 204.459 221.02 182.276 203.444C174.434 208.24 164.946 216.383 157.585 222.594L127.621 247.943C121.771 252.877 114.618 259.085 108.466 263.005L108.12 271.172C98.9439 271.296 89.5038 271.012 80.3096 270.892C102.53 252.694 124.428 233.449 146.58 215.11C151.654 210.908 179.823 185.962 182.997 187.083V187.082C184.884 188.742 196.343 197.92 197.13 199.155C200.397 201.356 203.333 203.91 206.438 206.521C213.953 213.122 221.6 219.319 229.181 225.754C235.74 220.623 242.157 215.6 248.402 209.717C249.948 207.077 252.112 206.35 254.413 205.287C254.889 204.231 259.499 200.836 260.62 199.945C267.907 193.883 275.164 187.735 282.382 181.507C285.301 179.226 286.732 178.332 289.852 176.624ZM280.384 179.768C278.804 181.793 267.28 191.143 264.923 193.138C257.232 199.707 249.503 206.194 241.743 212.598C238.49 215.272 232.724 220.236 229.433 222.124C224.233 218.156 187.636 189.93 186.616 187.155L187.779 186.737C198.003 189.104 211.449 190.588 222.011 192.199C225.782 192.696 228.087 192.979 231.868 192.424C232.796 191.889 243.607 189.001 245.553 188.456L280.222 178.729L280.384 179.768ZM289.316 196.03H289.317H289.316Z" fill="white"></path><path d="M197.13 199.155C200.397 201.357 203.334 203.91 206.439 206.522C205.394 206.857 203.575 207.564 202.568 207.181C200.111 206.253 197.654 202.616 197.13 199.155Z" fill="white"></path><path d="M260.62 199.946C261.645 202.682 261.559 201.312 260.996 204.183C258.999 207.423 256.928 206.484 254.413 205.287C254.889 204.231 259.499 200.836 260.62 199.946Z" fill="white"></path><path d="M248.402 209.717C249.948 207.077 252.111 206.349 254.413 205.287C253.554 208.599 254.209 207.129 252.539 208.399C252.746 208.244 251.007 213.095 250.718 213.785L250.055 213.892C247.94 210.935 249.123 212.094 248.402 209.717Z" fill="white"></path><path d="M383.084 103.954C383.122 110.782 383.549 125.618 382.652 132.598C382.58 133.16 381.107 133.689 380.521 133.982C379.582 136.101 379.919 157.151 379.916 161.06L379.754 243.45L379.641 245.948L379.112 246.506C375.234 244.47 366.008 236.218 362.206 233.041C356.727 228.459 349.751 223.189 344.737 218.035C344.648 174.833 345.537 130.438 345.141 87.4614L383.084 103.954ZM350.927 183.949L350.902 193.296C353.763 193.272 357.209 193.296 360.057 193.22V183.904L350.927 183.949ZM350.927 170.148L350.902 179.495C353.763 179.47 357.209 179.494 360.057 179.418V170.103L350.927 170.148ZM350.927 156.346L350.902 165.694C353.763 165.67 357.209 165.694 360.057 165.618V156.302L350.927 156.346ZM350.927 142.545L350.902 151.892C353.763 151.868 357.209 151.892 360.057 151.816V142.5L350.927 142.545ZM350.927 128.745L350.902 138.091C353.763 138.067 357.209 138.091 360.057 138.015V128.7L350.927 128.745ZM350.927 114.943L350.902 124.29C353.763 124.265 357.209 124.29 360.057 124.214V114.898L350.927 114.943ZM350.927 101.208L350.902 110.554C353.763 110.53 357.209 110.554 360.057 110.478V101.163L350.927 101.208Z" fill="white"></path><path d="M317.09 81.5222C317.69 90.3655 317.276 110.239 317.272 119.7L317.189 194.908C311.058 190.543 305.058 185.82 299.21 180.741C295.401 177.556 292.712 175.2 289.072 171.511L289.255 96.7585L316.492 80.8005L317.09 81.5222ZM293.996 163.593L293.973 172.939C296.833 172.915 300.279 172.939 303.126 172.863V163.548L293.996 163.593ZM293.996 151.516L293.973 160.863C296.833 160.839 300.279 160.863 303.126 160.787V151.471L293.996 151.516ZM293.996 139.44L293.973 148.787C296.833 148.763 300.279 148.787 303.126 148.711V139.395L293.996 139.44ZM293.996 127.363L293.973 136.711C296.833 136.687 300.279 136.71 303.126 136.635V127.318L293.996 127.363ZM293.996 115.287L293.973 124.635C296.833 124.61 300.279 124.634 303.126 124.558V115.242L293.996 115.287ZM293.996 103.211L293.973 112.558C296.833 112.534 300.279 112.558 303.126 112.482V103.166L293.996 103.211Z" fill="white"></path><path d="M383.584 140.672C389.819 143.898 399.929 152.01 406.094 156.678L405.684 232.41C405.656 240.418 406.067 262.225 405.366 268.756C398.031 262.911 390.747 256.949 383.512 250.87L383.584 140.672Z" fill="white"></path><path d="M327.596 63.7559L360.826 64.0698C360.712 72.7785 360.668 81.4908 360.688 90.203C355.14 87.8118 346.221 83.5886 340.804 82.0325C341.094 114.173 340.752 147.396 340.68 179.619L340.579 214.295C337.574 212.284 334.517 210.076 331.529 207.985L331.274 111.678L327.599 109.159L327.596 63.7559Z" fill="white"></path><path d="M169.921 258.751C173.571 258.696 177.222 258.724 180.872 258.834L180.89 269.006C177.36 269.013 173.357 268.882 169.869 269.057C170.021 266.339 169.928 261.594 169.921 258.751Z" fill="white"></path><path d="M182.75 258.748C186.401 258.693 190.051 258.72 193.702 258.831L193.719 269.002C190.189 269.009 186.187 268.878 182.698 269.054C182.85 266.335 182.757 261.591 182.75 258.748Z" fill="white"></path><path d="M169.921 246.082C173.571 246.027 177.222 246.054 180.872 246.165L180.89 256.336C177.36 256.343 173.357 256.212 169.869 256.388C170.021 253.669 169.928 248.925 169.921 246.082Z" fill="white"></path><path d="M182.825 246.038C186.476 245.982 190.126 246.01 193.777 246.12L193.794 256.292C190.264 256.299 186.262 256.168 182.773 256.344C182.925 253.625 182.832 248.881 182.825 246.038Z" fill="white"></path><path d="M180.489 207.171C185.182 207.126 241.019 256.111 249.531 263.995L243.327 265.237C238.131 261.825 227.525 252.188 222.159 247.657L183.853 215.707L180.765 213.181C163.69 228.459 145.835 242.389 128.541 257.18C125.828 259.499 120.247 265.599 117.117 263.75L117.164 262.68C120.459 257.901 135.45 245.494 140.006 241.619L180.489 207.171Z" fill="white"></path><path d="M207.001 287.703C229.339 284.929 235.105 313.235 214.517 319.039C194.001 323.231 183.47 295.27 207.001 287.703ZM213.443 311.628C224.046 305.338 217.953 293.942 207.781 294.842C196.612 301.488 202.499 313.661 213.443 311.628Z" fill="white"></path><path d="M272.524 209.744C276.778 206.135 284.911 199.524 289.182 196.688C304.795 208.871 321.333 223.404 336.625 236.495C342.777 241.76 356.478 253.595 361.868 259.54L356.661 258.357C350.519 256.977 343.95 249.724 338.619 245.173C331.704 239.276 293.854 205.249 289.475 205.097C281.819 204.831 252.512 239.59 246.943 234.373C246.218 231.92 248.116 230.309 249.572 228.987C257.004 222.224 264.933 216.135 272.524 209.744Z" fill="white"></path><path d="M290.494 287.326C301.115 287.23 329.289 290.325 313.317 314.039C306.279 321.254 298.529 319.826 290.124 319.653C290.176 314.461 289.642 290.835 290.494 287.326ZM298.857 294.341C297.967 296.404 298.312 309.861 298.326 312.828C301.701 312.228 303.726 312.031 306.745 309.574C314.308 300.02 305.123 295.027 298.857 294.341Z" fill="white"></path><path d="M271.051 287.323L271.583 287.716C272.062 289.469 271.828 293.274 271.841 295.314C271.935 301.452 272.766 310.326 269.312 315.088C264.219 322.116 251.053 322.009 246.126 314.722C243.013 310.116 243.717 300.6 243.848 294.572C243.931 292.288 243.918 289.655 243.949 287.336L252.247 287.498C251.574 294.213 250.311 304.785 253.585 310.537C255.431 313.818 260.352 313.801 262.146 310.568C265.113 305.223 263.947 294.396 263.705 287.881L271.051 287.323Z" fill="white"></path><path d="M342.512 287.164C346.245 286.905 350.351 287.064 353.794 289.354C355.474 290.472 356.892 292.212 357.444 294.793C358.096 297.86 357.438 300.969 356.316 303.64C354.964 306.855 347.187 318.754 345.082 319.549L337.226 319.519C339.123 316.596 341.532 313.462 343.581 310.671C339.886 308.166 335.252 305.613 333.83 299.71C331.936 291.86 338.437 288.51 342.512 287.164ZM345.647 293.568C343.039 294.514 341.289 295.487 341.565 299.807C342.89 302.536 343.833 302.446 346.003 302.629C352.117 301.194 351.251 293.81 345.647 293.568Z" fill="white"></path><path d="M125.742 287.34C126.604 287.174 127.471 287.047 128.339 286.957C133.051 286.519 138.909 288.158 142.501 292.678C143.101 294.768 143.105 293.764 142.585 295.786C141.263 297.505 139.587 297.891 137.811 298.629C137.261 298.181 136.706 297.739 136.147 297.311C133 294.91 129.659 293.726 126.17 295.265C119.986 297.995 120.243 308.946 126.318 311.548C130.32 313.259 134.428 310.992 137.944 308.356C139.896 308.649 142.381 309.812 144.317 310.592C141.895 314.87 140.055 317.037 136.298 318.893C128.926 322.534 116.526 318.931 113.855 307.2C113.068 303.843 113.317 300.168 114.543 297.084C116.886 291.246 121.516 289.103 125.742 287.34Z" fill="white"></path><path d="M326.046 117.444C326.547 117.316 326.233 117.313 327.037 117.785C327.554 120.128 327.54 197.468 326.902 202.368L326.209 202.84L324.152 201.736C322.279 199.787 320.988 198.714 320.919 195.194C320.76 186.913 320.923 178.601 320.985 170.314C321.15 153.538 321.244 136.762 321.268 119.983L326.046 117.444Z" fill="white"></path><path d="M139.234 335.065C154.27 334.734 157.685 350.92 142.756 353.967C128.241 354.053 124.005 338.861 139.234 335.065ZM148.342 345.989C148.663 339.116 143.389 337.904 139.608 338.039L139.004 338.067C129.06 341.828 133.859 351.541 143.335 350.882C145.883 349.643 147.041 349.267 148.342 345.989Z" fill="white"></path><path d="M161.229 287.592L169.534 287.416L169.572 312.748C172.732 312.897 176.141 312.821 179.326 312.828L180.033 319.528L161.066 319.566C161.173 308.908 161.227 298.25 161.229 287.592Z" fill="white"></path><path d="M359.939 335.541C365.042 335.607 370.95 334.879 375.38 339.023C379.12 342.521 377.35 347.539 374.869 351.103C370.76 354.287 364.642 353.604 359.942 353.535L359.939 335.541ZM363.925 350.716C366.844 350.633 369.397 350.813 372.078 349.001C376.884 339.534 368.331 338.453 363.835 338.453L363.925 350.716Z" fill="white"></path><path d="M295.9 335.493L296.314 335.497C296.759 335.497 298.54 335.486 298.84 335.614C301.362 336.694 304.074 345.572 305.285 348.794C306.472 345.275 309.325 336.794 311.648 335.276C315.833 335.531 317.437 347.863 317.662 352.662L317.21 353.383L315.081 353.463C313.787 352.193 313.104 347.456 312.624 345.092C312.141 343.495 312.541 343.96 311.589 343.346C309.581 345.385 308.415 351.91 306.738 353.28C303.149 356.213 299.695 344.361 298.688 341.659C297.449 346.797 297.598 353.535 293.088 353.546L292.608 352.724C293.012 348.166 294.982 340.727 295.9 335.493Z" fill="white"></path><path d="M114.306 335.493C118.066 335.521 122.964 335.093 125.778 339.113C126.528 343.071 123.826 344.275 121.689 345.5C123.105 347.615 125.248 350.485 126.181 352.938L125.52 353.881C121.27 353.494 119.493 348.86 116.814 344.516C116.902 347.822 117.399 351.13 115.939 353.411C114.244 353.525 114.23 353.956 113.148 352.852C112.619 349.485 112.916 339.578 112.961 335.486L114.306 335.493ZM120.718 338.931C119.062 338.1 118.063 338.317 116.267 338.342C116.336 341.04 116.03 340.523 116.995 342.261C118.547 342.841 119.649 342.409 121.244 342.089C121.429 339.649 121.674 340.636 120.718 338.931Z" fill="white"></path><path d="M190.847 335.49C195.142 335.483 199.808 334.879 203.386 338.692C204.759 342.846 201.857 344.109 199.573 345.52C200.871 347.839 203.982 350.751 203.651 353.417L202.095 353.957C199.203 352.697 196.896 348.118 194.777 344.733C194.805 347.403 195.101 351.396 194.083 353.57C192.386 353.673 193.166 353.921 191.658 352.749C190.037 349.236 190.809 340.32 190.847 335.49ZM198.729 338.931C197.072 338.1 196.073 338.317 194.277 338.341C194.347 341.039 194.041 340.522 195.006 342.261C196.557 342.841 197.66 342.409 199.256 342.088C199.441 339.649 199.685 340.636 198.729 338.931Z" fill="white"></path><path d="M95.1748 335.518C98.7063 335.501 107.015 334.431 108.196 339.976C107.236 345.269 104.655 345.03 101.402 345.558C100.283 345.417 100.676 345.42 99.5498 345.81C98.2777 348.846 100.099 350.544 98.2373 353.225C96.9616 353.639 96.7617 353.895 95.5283 353.294C94.8679 351.666 95.1644 338.403 95.1748 335.518ZM103.488 339.002C101.827 338.164 100.787 338.385 98.9854 338.409C99.0806 341.097 98.7731 340.614 99.7402 342.371C101.074 343.057 102.663 342.408 104.125 342.052C104.202 339.724 104.451 340.686 103.488 339.002Z" fill="white"></path><path d="M156.884 335.476C160.474 335.514 167.517 334.445 169.523 339.082C169.744 341.052 169.821 340.952 169.258 342.75C167.387 345.289 165.248 345.237 162.715 345.613C161.684 345.489 162.062 345.496 161.011 345.961C159.721 349.07 162.152 350.827 159.73 353.635C158.106 353.791 158.871 353.98 157.359 352.956C156.383 350.985 156.854 338.775 156.884 335.476ZM165.113 339.03C163.457 338.198 162.458 338.416 160.662 338.44C160.732 341.138 160.426 340.621 161.391 342.36C162.942 342.94 164.045 342.508 165.641 342.187C165.826 339.748 166.07 340.734 165.113 339.03Z" fill="white"></path><path d="M174.395 335.483C178.298 335.462 182.2 335.631 186.095 335.987L186.413 337.049C184.425 338.105 179.771 338.374 178.239 340.593C179.56 344.274 184.004 340.496 186.268 343.17L186.116 344.547C184.532 345.92 182.024 345.341 179.836 345.327C178.832 345.482 179.319 345.306 178.429 346.224C177.497 355.643 185.436 347.242 186.496 352.3C184.674 354.553 177.231 353.639 174.378 353.58C174.412 347.549 174.416 341.518 174.395 335.483Z" fill="white"></path><path d="M343.785 335.524C346.097 335.535 354.667 334.951 355.858 336.632L355.606 337.76C353.122 340.21 348.353 336.225 347.501 340.365C348.688 342.943 352.611 342.149 355.533 343.156L355.768 344.026L355.178 344.982C353.839 345.492 350.975 345.309 349.471 345.299C348.219 345.451 348.767 345.165 347.753 346.172L347.522 348.643C348.633 352.262 352.887 349.674 355.72 351.824L355.561 352.869C354.146 354.049 346.076 353.549 343.768 353.549C343.843 347.542 343.85 341.531 343.785 335.524Z" fill="white"></path><path d="M230.433 335.545C232.897 335.617 240.884 334.731 242.316 336.521L242.03 337.733C239.004 340.058 236.054 336.287 233.956 340.348L234.215 341.338C236.571 342.787 239.214 341.935 242.275 343.015L242.544 343.791L241.661 345.085C239.594 345.565 237.907 345.389 235.823 345.327C234.96 345.465 235.284 345.375 234.481 346.058C234.263 348.249 234.039 348.046 234.56 349.774C236.723 351.362 239.442 350.202 242.22 351.713L242.213 352.683C240.86 354.136 232.759 353.556 230.416 353.542L230.433 335.545Z" fill="white"></path><path d="M250.162 335.045C252.332 334.962 255.776 334.986 257.218 337.584L256.728 338.775C254.275 340.331 253.316 337.667 250.273 338.488L250.007 339.102C252.143 343.27 258.947 345.071 258.226 350.803C256.425 353.349 254.341 353.646 251.874 354.056C249.727 353.87 246.343 353.401 245.218 350.589C246.577 347.476 251.287 351.931 253.878 350.109L254.102 349.139C252.622 346.169 248.565 344.626 246.156 340.783C245.29 336.573 247.799 336.066 250.162 335.045Z" fill="white"></path><path d="M206.122 335.587C208.955 335.611 217.249 334.831 218.744 336.729L218.605 337.253C217.529 338.347 215.769 338.789 214.42 339.275C214.175 341.121 214.313 347.031 214.331 349.24C214.375 350.823 214.558 351.921 213.961 353.208C212.647 353.86 212.505 354.146 211.18 353.56C208.744 349.661 211.981 341.739 209.61 338.537C206.843 338.568 206.702 339.23 206.122 335.587Z" fill="white"></path><path d="M328.32 335.711C330.418 335.469 339.372 335.2 340.883 336.553L340.824 336.97C339.634 338.243 337.999 338.657 336.518 339.22C336.097 341.028 336.301 346.459 336.325 348.65L336.301 351.776C335.518 353.715 336.049 353.028 334.703 354.005C333.517 353.842 333.551 353.673 332.564 352.635C332.092 349.419 332.561 343.491 332.374 339.403C331.008 337.377 331.022 339.447 328.807 338.064L328.32 335.711Z" fill="white"></path><path d="M271.445 335.524C272.732 335.445 273.698 335.159 274.798 336.018C276.379 339.044 275.582 346.569 275.585 350.661C277.648 350.554 280.153 349.95 281.578 351.751L281.485 353.528L271.365 353.566C271.445 347.628 271.42 341.48 271.445 335.524Z" fill="white"></path><path d="M221.304 335.48C222.601 335.431 223.581 335.138 224.609 336.132C226.179 339.931 225.327 348.902 225.261 353.58C223.374 353.601 223.398 354.005 221.956 352.911C220.493 349.153 221.297 340.607 221.304 335.48Z" fill="white"></path><path d="M284.835 335.514C286.194 335.431 287.095 335.124 288.206 336.152C289.707 339.92 288.861 348.943 288.792 353.539C287.516 353.653 286.712 353.942 285.628 353.052C284.052 349.595 284.838 340.476 284.835 335.514Z" fill="white"></path><path d="M321.613 335.531C323.103 335.524 324.435 335.19 325.301 336.38C325.636 340.158 325.595 349.819 325.281 353.639C323.98 353.701 323.238 353.977 322.224 352.883C320.826 349.422 321.551 340.017 321.613 335.531Z" fill="white"></path><path d="M276.091 238.479C279.741 238.424 283.392 238.452 287.042 238.562L287.06 248.734C283.53 248.741 279.527 248.61 276.039 248.786C276.191 246.067 276.098 241.322 276.091 238.479Z" fill="white"></path><path d="M288.92 238.476C292.57 238.421 296.221 238.448 299.871 238.559L299.889 248.73C296.359 248.737 292.357 248.606 288.868 248.782C289.02 246.063 288.927 241.319 288.92 238.476Z" fill="white"></path><path d="M276.091 225.81C279.741 225.755 283.392 225.782 287.042 225.893L287.06 236.064C283.53 236.071 279.527 235.94 276.039 236.116C276.191 233.397 276.098 228.653 276.091 225.81Z" fill="white"></path><path d="M288.995 225.766C292.645 225.71 296.296 225.738 299.946 225.848L299.964 236.02C296.434 236.027 292.432 235.896 288.943 236.072C289.095 233.353 289.002 228.609 288.995 225.766Z" fill="white"></path></g><defs><clipPath id="clip0_560_602"><rect width="493.403" height="426.811" fill="white"></rect></clipPath></defs></svg>